HIERARCHY
ROOT Hips
{
  OFFSET 5.84602e-005 68.8428 3.50346
  CHANNELS 6 Xposition Yposition Zposition Zrotation Xrotation Yrotation
  JOINT Spine
  {
    OFFSET 0 8.597 -4.6522
    CHANNELS 3 Zrotation Xrotation Yrotation
    JOINT Spine1
    {
      OFFSET 0 7.8454 0.4098
      CHANNELS 3 Zrotation Xrotation Yrotation
      JOINT Spine2
      {
        OFFSET 0 9.7078 -2.1609
        CHANNELS 3 Zrotation Xrotation Yrotation
        JOINT Neck
        {
          OFFSET 0 21.8761 -0.4549
          CHANNELS 3 Zrotation Xrotation Yrotation
          JOINT Head
          {
            OFFSET 0 12.3537 3.3602
            CHANNELS 3 Zrotation Xrotation Yrotation
            End Site
            {
              OFFSET 0.0001 18.9506 0.5657
            }
          }
        }
        JOINT LeftShoulder
        {
          OFFSET 2.2086 21.1115 7.2329
          CHANNELS 3 Zrotation Xrotation Yrotation
          JOINT LeftArm
          {
            OFFSET 13.1193 3.0282 -4.8998
            CHANNELS 3 Zrotation Xrotation Yrotation
            JOINT LeftForeArm
            {
              OFFSET 27.4081 -0.0973053 -0.2375
              CHANNELS 3 Zrotation Xrotation Yrotation
              JOINT LeftHand
              {
                OFFSET 22.8641 0.0662994 -0.1369
                CHANNELS 3 Zrotation Xrotation Yrotation
                JOINT LeftHandIndex1
                {
                  OFFSET 8.8614 0.775009 2.4612
                  CHANNELS 3 Zrotation Xrotation Yrotation
                  JOINT LeftHandIndex2
                  {
                    OFFSET 3.3146 -0.808304 0.5841
                    CHANNELS 3 Zrotation Xrotation Yrotation
                    JOINT LeftHandIndex3
                    {
                      OFFSET 2.2628 -0.552002 0.3989
                      CHANNELS 3 Zrotation Xrotation Yrotation
                      End Site
                      {
                        OFFSET 1.6102 -0.4807 0.2612
                      }
                    }
                  }
                }
                JOINT LeftHandMiddle1
                {
                  OFFSET 8.9937 0.895004 0.2143
                  CHANNELS 3 Zrotation Xrotation Yrotation
                  JOINT LeftHandMiddle2
                  {
                    OFFSET 4.0984 0.0113983 -0.0242
                    CHANNELS 3 Zrotation Xrotation Yrotation
                    JOINT LeftHandMiddle3
                    {
                      OFFSET 2.2716 0.00689697 -0.0138001
                      CHANNELS 3 Zrotation Xrotation Yrotation
                      End Site
                      {
                        OFFSET 2.0404 -0.1441 0.0027
                      }
                    }
                  }
                }
                JOINT LeftHandRing1
                {
                  OFFSET 8.5234 0.597198 -2.0164
                  CHANNELS 3 Zrotation Xrotation Yrotation
                  JOINT LeftHandRing2
                  {
                    OFFSET 3.7188 -0.188293 -0.2328
                    CHANNELS 3 Zrotation Xrotation Yrotation
                    JOINT LeftHandRing3
                    {
                      OFFSET 2.1191 -0.106598 -0.1332
                      CHANNELS 3 Zrotation Xrotation Yrotation
                      End Site
                      {
                        OFFSET 1.8737 -0.2304 -0.0886
                      }
                    }
                  }
                }
                JOINT LeftHandPinky1
                {
                  OFFSET 7.9094 -0.601089 -3.4825
                  CHANNELS 3 Zrotation Xrotation Yrotation
                  JOINT LeftHandPinky2
                  {
                    OFFSET 2.2874 -0.477005 -0.6314
                    CHANNELS 3 Zrotation Xrotation Yrotation
                    JOINT LeftHandPinky3
                    {
                      OFFSET 1.6774 -0.349396 -0.4633
                      CHANNELS 3 Zrotation Xrotation Yrotation
                      End Site
                      {
                        OFFSET 1.4888 -0.4091 -0.3416
                      }
                    }
                  }
                }
                JOINT LeftHandThumb1
                {
                  OFFSET 1.833 -1.3875 1.3896
                  CHANNELS 3 Zrotation Xrotation Yrotation
                  JOINT LeftHandThumb2
                  {
                    OFFSET 3.4129 -1.121 2.5732
                    CHANNELS 3 Zrotation Xrotation Yrotation
                    JOINT LeftHandThumb3
                    {
                      OFFSET 2.2474 -0.804199 1.6192
                      CHANNELS 3 Zrotation Xrotation Yrotation
                      End Site
                      {
                        OFFSET 1.6527 -0.5689 1.1317
                      }
                    }
                  }
                }
              }
            }
          }
        }
        JOINT RightShoulder
        {
          OFFSET -2.2086 21.1115 7.2329
          CHANNELS 3 Zrotation Xrotation Yrotation
          JOINT RightArm
          {
            OFFSET -13.1216 3.0287 -4.9007
            CHANNELS 3 Zrotation Xrotation Yrotation
            JOINT RightForeArm
            {
              OFFSET -27.4081 -0.0973053 -0.2375
              CHANNELS 3 Zrotation Xrotation Yrotation
              JOINT RightHand
              {
                OFFSET -22.8641 0.0664063 -0.1369
                CHANNELS 3 Zrotation Xrotation Yrotation
                JOINT RightHandIndex1
                {
                  OFFSET -8.8614 0.774994 2.4612
                  CHANNELS 3 Zrotation Xrotation Yrotation
                  JOINT RightHandIndex2
                  {
                    OFFSET -3.3146 -0.808304 0.5841
                    CHANNELS 3 Zrotation Xrotation Yrotation
                    JOINT RightHandIndex3
                    {
                      OFFSET -2.2628 -0.552002 0.3989
                      CHANNELS 3 Zrotation Xrotation Yrotation
                      End Site
                      {
                        OFFSET -1.6102 -0.4807 0.2612
                      }
                    }
                  }
                }
                JOINT RightHandMiddle1
                {
                  OFFSET -8.9937 0.894989 0.2143
                  CHANNELS 3 Zrotation Xrotation Yrotation
                  JOINT RightHandMiddle2
                  {
                    OFFSET -4.0984 0.0113983 -0.0242
                    CHANNELS 3 Zrotation Xrotation Yrotation
                    JOINT RightHandMiddle3
                    {
                      OFFSET -2.2716 0.00691223 -0.0138001
                      CHANNELS 3 Zrotation Xrotation Yrotation
                      End Site
                      {
                        OFFSET -2.0404 -0.1441 0.0027
                      }
                    }
                  }
                }
                JOINT RightHandRing1
                {
                  OFFSET -8.5234 0.597198 -2.0164
                  CHANNELS 3 Zrotation Xrotation Yrotation
                  JOINT RightHandRing2
                  {
                    OFFSET -3.7188 -0.188309 -0.2328
                    CHANNELS 3 Zrotation Xrotation Yrotation
                    JOINT RightHandRing3
                    {
                      OFFSET -2.1191 -0.106598 -0.1332
                      CHANNELS 3 Zrotation Xrotation Yrotation
                      End Site
                      {
                        OFFSET -1.8737 -0.2304 -0.0886
                      }
                    }
                  }
                }
                JOINT RightHandPinky1
                {
                  OFFSET -7.9094 -0.601105 -3.4825
                  CHANNELS 3 Zrotation Xrotation Yrotation
                  JOINT RightHandPinky2
                  {
                    OFFSET -2.2874 -0.477005 -0.6314
                    CHANNELS 3 Zrotation Xrotation Yrotation
                    JOINT RightHandPinky3
                    {
                      OFFSET -1.6774 -0.349396 -0.4633
                      CHANNELS 3 Zrotation Xrotation Yrotation
                      End Site
                      {
                        OFFSET -1.4888 -0.4091 -0.3416
                      }
                    }
                  }
                }
                JOINT RightHandThumb1
                {
                  OFFSET -1.833 -1.38751 1.3896
                  CHANNELS 3 Zrotation Xrotation Yrotation
                  JOINT RightHandThumb2
                  {
                    OFFSET -3.41299 -1.12099 2.5732
                    CHANNELS 3 Zrotation Xrotation Yrotation
                    JOINT RightHandThumb3
                    {
                      OFFSET -2.24741 -0.804108 1.6192
                      CHANNELS 3 Zrotation Xrotation Yrotation
                      End Site
                      {
                        OFFSET -1.6527 -0.5689 1.1317
                      }
                    }
                  }
                }
              }
            }
          }
        }
      }
    }
  }
  JOINT RightUpLeg
  {
    OFFSET -9.1966 3.8861 -0.7581
    CHANNELS 3 Zrotation Xrotation Yrotation
    JOINT RightLeg
    {
      OFFSET -0.7359 -41.0265 0
      CHANNELS 3 Zrotation Xrotation Yrotation
      JOINT RightFoot
      {
        OFFSET 0 -40.2855 0
        CHANNELS 3 Zrotation Xrotation Yrotation
        JOINT RightToeBase
        {
          OFFSET 0 -5.6122 11.7359
          CHANNELS 3 Zrotation Xrotation Yrotation
          End Site
          {
            OFFSET 0 0 7.8731
          }
        }
      }
    }
  }
  JOINT LeftUpLeg
  {
    OFFSET 9.1965 3.8864 -0.7581
    CHANNELS 3 Zrotation Xrotation Yrotation
    JOINT LeftLeg
    {
      OFFSET 0.7359 -41.0268 0
      CHANNELS 3 Zrotation Xrotation Yrotation
      JOINT LeftFoot
      {
        OFFSET 0 -40.2855 0
        CHANNELS 3 Zrotation Xrotation Yrotation
        JOINT LeftToeBase
        {
          OFFSET 0 -5.6122 11.7359
          CHANNELS 3 Zrotation Xrotation Yrotation
          End Site
          {
            OFFSET 0 0 7.8731
          }
        }
      }
    }
  }
}
MOTION
Frames:	4
Frame Time:	0.0333333
5.84602e-005 68.8428 3.50346 0 0 -0 0 0 -0 0 0 -0 0 0 -0 0 0 -0 0 0 -0 0 0 -0 0 0 -0 0 0 -0 0 0 -0 0 0 -0 0 0 -0 0 0 -0 0 0 -0 -0.0146107 -8.87603e-005 -2.63497e-007 2.99804e-018 -2.42657e-020 -1.42182e-022 0 0 -0 -0.0187562 -0.001176 5.858e-005 5.06224e-018 3.88251e-019 1.21329e-020 0 0 -0 -0.012269 -0.00324817 0.000675346 -1.74678e-018 3.88251e-019 -0 0 0 -0 0 0 -0 0 0 -0 0 0 -0 0 0 -0 0 0 -0 0 0 -0 0 0 -0 0 0 -0 0 0 -0 0 0 -0 0.0149955 -9.10982e-005 2.64101e-007 -9.69331e-018 1.21329e-020 -4.7394e-023 0 0 -0 0.0189956 -0.00119102 -5.96516e-005 -5.41541e-019 0 2.42657e-020 0 0 -0 0.0122698 -0.00324857 -0.000673756 -2.00796e-019 0 -1.94126e-019 0 0 -0 0 0 -0 0 0 -0 3.39842 1.33031 -0.0637918 -5.65207e-008 0.834868 -0.000436188 -3.39935 -2.16518 -0.0642563 -8.89002e-024 -1.18485e-023 -1.48106e-024 -3.39844 1.35642 0.0640283 -3.18788e-007 0.782166 -0.000588827 3.39931 -2.13858 0.0634662 1.1399e-023 0 -0 
-0.278688 15.8356 -0.372871 -3.97613 16.308 -166.097 -0.670979 22.3204 0.0645876 -1.57781 44.638 0.506713 -1.5778 44.638 0.506707 -1.80237e-005 -20.4883 3.84523e-006 -7.18929e-007 -2.28335 6.95277e-007 -5.23785 -23.8243 8.13008 -23.2759 35.589 -97.856 45.4694 -18.7429 -21.8101 24.463 22.519 -0.306433 1.83622e-006 1.2142e-006 1.7113e-007 1.91596e-006 9.93821e-007 -4.56967e-007 1.83622e-006 1.2142e-006 1.71131e-007 1.83622e-006 1.2142e-006 1.7113e-007 -0.0146167 -8.80731e-005 -3.80495e-006 1.83715e-006 1.21418e-006 1.71284e-007 1.83622e-006 1.2142e-006 1.7113e-007 -0.0187727 -0.00117528 5.26508e-005 1.83742e-006 1.21424e-006 1.71307e-007 1.83622e-006 1.2142e-006 1.7113e-007 -0.0122762 -0.0032498 0.000679622 1.83701e-006 1.21438e-006 1.71165e-007 1.83622e-006 1.2142e-006 1.7113e-007 1.91596e-006 9.93821e-007 -4.56967e-007 1.83622e-006 1.2142e-006 1.71131e-007 4.37787 -22.8331 -9.31741 23.1792 34.9965 96.3788 -46.0074 -19.2775 23.0698 -18.0383 19.1817 -3.09917 3.18055e-015 -2.38542e-015 1.59028e-015 6.62086e-032 2.38542e-015 -1.59028e-015 3.18055e-015 1.59028e-015 -0 3.18055e-015 -2.38542e-015 1.59028e-015 0.0149614 -8.95925e-005 -2.44369e-007 -4.03671e-007 1.676e-007 -4.99074e-007 3.18055e-015 -2.38542e-015 1.59028e-015 0.0189986 -0.00119327 -6.53433e-005 -6.36111e-015 0 -1.59028e-015 3.18055e-015 -2.38542e-015 1.59028e-015 0.0122359 -0.00324035 -0.000679302 3.18055e-015 -5.56597e-015 4.77083e-015 3.18055e-015 -2.38542e-015 1.59028e-015 6.62086e-032 2.38542e-015 -1.59028e-015 3.18055e-015 1.59028e-015 -0 -37.3539 -13.3385 1.58616 -170.94 52.1103 167.581 16.2865 46.9431 9.42246 -1.90404e-006 1.89116e-006 -1.05038e-006 39.1201 -13.8922 -3.19252 170.647 54.058 -167.519 -14.8489 49.6938 -12.1164 -2.56545e-006 -2.49708e-006 2.37043e-007 
1.02231 19.1018 -0.285135 -8.67993e-015 13.3351 -180 -0.615913 20.028 0.0559704 -1.39696 40.0539 0.40024 -1.39696 40.0539 0.400239 -1.45438e-005 -19.5141 -1.37807e-006 2.89865e-007 -2.85674 -2.14465e-007 -5.00536 -21.6457 7.22253 -23.0341 39.5496 -93.1789 41.2868 -16.915 -18.7265 23.8275 20.3763 -1.09697 -2.01014e-006 2.23411e-007 -2.1399e-006 -2.35261e-007 3.28523e-007 1.36692e-007 -4.70523e-007 6.57045e-007 2.73383e-007 -2.01014e-006 2.23411e-007 -2.1399e-006 -0.0146093 -8.56042e-005 -6.86877e-006 -4.70518e-007 6.57011e-007 2.73467e-007 -2.01014e-006 2.23411e-007 -2.1399e-006 -0.0187508 -0.00117163 5.29068e-005 -4.70514e-007 6.57001e-007 2.73496e-007 -2.01014e-006 2.23411e-007 -2.1399e-006 -0.012263 -0.00324104 0.000662357 -4.70508e-007 6.5702e-007 2.73467e-007 -2.01014e-006 2.23411e-007 -2.1399e-006 -2.35261e-007 3.28523e-007 1.36692e-007 -4.70523e-007 6.57045e-007 2.73383e-007 4.26455 -20.7713 -8.2822 23.0014 38.9218 91.8242 -41.8812 -17.3702 19.8252 -17.8618 17.4498 -1.90837 4.72082e-007 6.50603e-007 -2.77807e-007 4.72082e-007 6.50603e-007 -2.77807e-007 4.72082e-007 6.50603e-007 -2.77807e-007 4.72082e-007 6.50603e-007 -2.77807e-007 0.015 -9.13597e-005 -2.00626e-006 4.72072e-007 6.50567e-007 -2.77893e-007 4.72082e-007 6.50603e-007 -2.77807e-007 0.0190113 -0.00118827 -5.55351e-005 4.72066e-007 6.50558e-007 -2.7792e-007 4.72082e-007 6.50603e-007 -2.77807e-007 0.0123021 -0.00325097 -0.000672428 4.72062e-007 6.50578e-007 -2.7789e-007 4.72082e-007 6.50603e-007 -2.77807e-007 4.72082e-007 6.50603e-007 -2.77807e-007 4.72082e-007 6.50603e-007 -2.77807e-007 -35.0913 -14.5978 2.06337 -171.31 60.0457 168.473 14.943 43.556 9.71917 -6.36111e-015 -3.18055e-015 3.18055e-015 36.7256 -15.0458 -3.50188 171.071 61.8557 -168.367 -13.9409 46.0925 -11.9738 3.24455e-006 -3.32801e-008 -6.67346e-007 
1.02263 18.7373 0.147578 -8.40544e-015 11.1952 -180 -0.607233 19.3201 0.038355 -1.35711 38.6385 0.341889 -1.35711 38.6384 0.341888 -2.82881e-005 -19.9248 -2.85926e-006 -2.75861e-007 -3.5418 3.09293e-007 -4.90461 -21.1188 6.98307 -23.2092 39.1977 -93.1259 39.8418 -16.2888 -17.364 24.8085 19.8112 -1.84638 2.35466e-007 -3.28326e-007 -1.36821e-007 5.29669e-031 -9.54166e-015 3.18055e-015 2.35466e-007 -3.28326e-007 -1.36821e-007 2.35466e-007 -3.28326e-007 -1.36821e-007 -0.0146017 -8.67756e-005 8.55522e-007 2.35464e-007 -3.28309e-007 -1.36863e-007 2.35466e-007 -3.28326e-007 -1.36821e-007 -0.0187622 -0.00117837 6.24875e-005 2.01709e-006 -2.20568e-007 2.1502e-006 2.35466e-007 -3.28326e-007 -1.36821e-007 -0.0122518 -0.00324524 0.000673232 2.35459e-007 -3.28313e-007 -1.36863e-007 2.35466e-007 -3.28326e-007 -1.36821e-007 5.29669e-031 -9.54166e-015 3.18055e-015 2.35466e-007 -3.28326e-007 -1.36821e-007 4.19946 -20.2825 -8.00436 23.1729 38.6388 91.8596 -40.4818 -16.6801 18.4084 -18.7876 17.0491 -1.02309 -4.72597e-007 -6.50164e-007 2.77979e-007 -3.18055e-015 7.95139e-015 3.18055e-015 -4.72597e-007 -6.50164e-007 2.77979e-007 -4.72597e-007 -6.50164e-007 2.77979e-007 0.0149939 -8.89309e-005 5.09924e-006 -4.72587e-007 -6.50127e-007 2.78065e-007 -4.72597e-007 -6.50164e-007 2.77979e-007 0.0189845 -0.00119268 -5.85491e-005 -4.72582e-007 -6.50119e-007 2.78092e-007 -4.72597e-007 -6.50164e-007 2.77979e-007 0.0122145 -0.00323611 -0.000673625 -4.72578e-007 -6.50139e-007 2.78061e-007 -4.72597e-007 -6.50164e-007 2.77979e-007 -3.18055e-015 7.95139e-015 3.18055e-015 -4.72597e-007 -6.50164e-007 2.77979e-007 -35.5027 -16.7904 2.16634 -173.12 59.5725 169.838 14.501 43.7446 10.8852 2.89655e-006 -2.49203e-007 -1.38858e-006 37.1025 -17.1833 -3.62786 173.033 61.395 -169.866 -13.5159 46.2634 -13.1627 7.52815e-006 -9.19255e-007 8.43645e-007 
